<?xml version="1.0" standalone="no"?>
<!DOCTYPE svg PUBLIC "-//W3C//DTD SVG 20010904//EN"
 "http://www.w3.org/TR/2001/REC-SVG-20010904/DTD/svg10.dtd">
<svg version="1.0" xmlns="http://www.w3.org/2000/svg"
 width="512.000000pt" height="512.000000pt" viewBox="0 0 512.000000 512.000000"
 preserveAspectRatio="xMidYMid meet">
<metadata>
Created by potrace 1.11, written by Peter Selinger 2001-2013
</metadata>
<g transform="translate(0.000000,512.000000) scale(0.100000,-0.100000)"
fill="#000000" stroke="none">
<path d="M3433 3820 l-192 -129 -115 49 c-93 40 -153 57 -313 90 -109 22 -208
42 -220 45 -11 3 -56 -2 -100 -10 -43 -8 -94 -17 -113 -20 -19 -3 -53 -10 -75
-15 -22 -4 -67 -14 -100 -20 -33 -7 -113 -37 -178 -66 l-119 -54 -73 52 c-41
29 -121 86 -179 126 l-105 72 -110 -66 c-61 -36 -114 -71 -120 -78 -20 -25
-93 -276 -87 -303 3 -16 8 -50 11 -78 24 -215 18 -196 121 -341 l94 -133 -85
-215 -85 -216 70 -322 c39 -178 74 -331 77 -341 2 -10 62 -55 131 -100 70 -45
189 -122 264 -172 76 -49 180 -117 230 -150 51 -32 156 -100 233 -150 77 -50
173 -112 212 -138 l73 -46 132 86 c349 227 762 498 897 588 l105 70 13 65 c7
36 15 74 17 85 2 11 11 50 20 86 8 37 17 78 20 90 2 13 13 65 25 114 11 50 22
101 25 115 2 14 9 46 15 72 11 46 9 54 -69 263 l-80 216 89 132 c84 126 96
152 105 222 2 17 9 57 15 90 22 131 23 128 -23 267 l-43 133 -104 82 c-57 45
-106 82 -109 82 -3 0 -91 -58 -197 -129z m-820 0 c23 -5 116 -26 206 -45 141
-31 178 -43 260 -86 53 -28 103 -58 112 -67 9 -10 65 -93 124 -187 59 -93 132
-208 162 -255 30 -47 81 -126 113 -176 45 -70 75 -138 134 -297 l76 -206 -85
-308 c-58 -212 -90 -312 -102 -321 -10 -7 -85 -54 -168 -104 -82 -50 -172
-105 -200 -122 -46 -30 -119 -63 -155 -71 -8 -2 -29 -8 -46 -13 l-32 -10 33
91 c18 51 40 109 49 131 11 27 16 69 16 142 l0 104 96 0 c63 0 100 4 108 13 7
6 36 33 64 60 l52 47 5 135 5 134 -33 38 c-17 21 -37 43 -43 48 -24 23 -95
115 -144 188 -32 49 -57 76 -65 73 -8 -3 -60 -19 -117 -37 -57 -18 -106 -35
-111 -39 -4 -3 -10 -44 -13 -91 -3 -46 -7 -104 -9 -129 -2 -25 -4 -55 -4 -67
l-1 -22 -47 19 c-27 11 -56 25 -67 31 -20 12 -130 24 -216 24 -88 0 -160 -12
-237 -39 l-73 -25 -1 22 c0 12 -2 38 -4 57 -2 19 -6 73 -9 119 -2 46 -8 87
-13 91 -9 7 -145 64 -205 86 l-37 13 -37 -57 c-59 -90 -124 -171 -186 -232
l-58 -57 0 -137 0 -138 66 -64 c45 -44 73 -64 92 -65 15 -1 47 -3 72 -4 25 -1
57 -3 73 -4 l27 -1 0 -89 c0 -84 3 -97 54 -228 30 -76 53 -139 52 -140 -1 -1
-34 7 -73 18 -56 15 -120 48 -283 146 -115 71 -222 134 -236 141 -14 8 -29 23
-35 35 -5 12 -45 153 -89 314 l-80 292 75 210 c78 220 68 201 263 501 162 250
218 336 247 379 23 34 52 56 128 97 91 50 138 66 297 98 14 3 63 14 110 25
105 24 93 23 143 11z m58 -1405 c58 -9 110 -25 158 -49 l71 -36 80 -161 81
-160 -6 -96 c-6 -84 -12 -108 -52 -202 -25 -58 -49 -110 -53 -114 -4 -5 -23
-10 -41 -13 -19 -2 -44 -7 -57 -10 -12 -2 -50 3 -85 12 -34 9 -71 18 -81 20
-10 2 -34 8 -52 14 -31 11 -34 15 -34 51 0 21 1 39 3 39 19 1 231 41 235 45 3
3 18 37 33 77 l28 71 -37 -35 c-37 -36 -37 -36 -77 -21 -31 11 -83 13 -240 11
-110 -2 -207 -8 -216 -12 -11 -5 -27 2 -48 19 -17 15 -31 24 -31 20 0 -15 66
-128 80 -135 8 -4 53 -15 100 -25 124 -24 120 -22 120 -60 0 -32 -3 -35 -42
-45 -24 -7 -72 -20 -108 -31 -61 -18 -71 -19 -134 -5 -75 15 -75 16 -115 106
-13 30 -32 74 -42 97 -14 32 -19 67 -19 133 l0 90 81 157 c45 87 86 163 93
169 17 17 134 64 175 70 20 3 54 10 76 14 57 11 61 11 156 -5z m-258 -875 c74
0 98 4 124 20 33 20 33 20 70 0 26 -13 68 -21 131 -25 79 -5 99 -3 138 15 26
11 51 20 56 20 4 0 -32 -40 -82 -90 -91 -89 -91 -90 -182 -115 l-91 -25 -100
26 c-81 20 -104 30 -124 55 -14 16 -50 55 -79 87 -29 31 -54 60 -54 64 0 3 23
-2 50 -13 36 -14 76 -19 143 -19z"/>
</g>
</svg>
